<svg id="visual" viewBox="0 0 900 600" width="900" height="600" xmlns="http://www.w3.org/2000/svg" xmlns:xlink="http://www.w3.org/1999/xlink" version="1.1"><rect x="0" y="0" width="900" height="600" fill="#e3eaef"></rect><path d="M0 280L11.5 266.3C23 252.7 46 225.3 69 243.2C92 261 115 324 138.2 331.3C161.3 338.7 184.7 290.3 207.8 280.5C231 270.7 254 299.3 277 294.7C300 290 323 252 346 230.3C369 208.7 392 203.3 415.2 229.3C438.3 255.3 461.7 312.7 484.8 338.8C508 365 531 360 554 349.8C577 339.7 600 324.3 623 325C646 325.7 669 342.3 692.2 349.3C715.3 356.3 738.7 353.7 761.8 343.5C785 333.3 808 315.7 831 297.8C854 280 877 262 888.5 253L900 244L900 601L888.5 601C877 601 854 601 831 601C808 601 785 601 761.8 601C738.7 601 715.3 601 692.2 601C669 601 646 601 623 601C600 601 577 601 554 601C531 601 508 601 484.8 601C461.7 601 438.3 601 415.2 601C392 601 369 601 346 601C323 601 300 601 277 601C254 601 231 601 207.8 601C184.7 601 161.3 601 138.2 601C115 601 92 601 69 601C46 601 23 601 11.5 601L0 601Z" fill="#6777ef"></path><path d="M0 351L11.5 340C23 329 46 307 69 309.7C92 312.3 115 339.7 138.2 360.7C161.3 381.7 184.7 396.3 207.8 399.3C231 402.3 254 393.7 277 376.5C300 359.3 323 333.7 346 328.8C369 324 392 340 415.2 351.3C438.3 362.7 461.7 369.3 484.8 376.8C508 384.3 531 392.7 554 372.5C577 352.3 600 303.7 623 294.2C646 284.7 669 314.3 692.2 335.2C715.3 356 738.7 368 761.8 367.2C785 366.3 808 352.7 831 334.5C854 316.3 877 293.7 888.5 282.3L900 271L900 601L888.5 601C877 601 854 601 831 601C808 601 785 601 761.8 601C738.7 601 715.3 601 692.2 601C669 601 646 601 623 601C600 601 577 601 554 601C531 601 508 601 484.8 601C461.7 601 438.3 601 415.2 601C392 601 369 601 346 601C323 601 300 601 277 601C254 601 231 601 207.8 601C184.7 601 161.3 601 138.2 601C115 601 92 601 69 601C46 601 23 601 11.5 601L0 601Z" fill="#77a3ec"></path><path d="M0 417L11.5 405C23 393 46 369 69 373.7C92 378.3 115 411.7 138.2 409.2C161.3 406.7 184.7 368.3 207.8 369C231 369.7 254 409.3 277 415.7C300 422 323 395 346 373C369 351 392 334 415.2 329.2C438.3 324.3 461.7 331.7 484.8 351.2C508 370.7 531 402.3 554 400.8C577 399.3 600 364.7 623 352.3C646 340 669 350 692.2 351.8C715.3 353.7 738.7 347.3 761.8 352.8C785 358.3 808 375.7 831 387C854 398.3 877 403.7 888.5 406.3L900 409L900 601L888.5 601C877 601 854 601 831 601C808 601 785 601 761.8 601C738.7 601 715.3 601 692.2 601C669 601 646 601 623 601C600 601 577 601 554 601C531 601 508 601 484.8 601C461.7 601 438.3 601 415.2 601C392 601 369 601 346 601C323 601 300 601 277 601C254 601 231 601 207.8 601C184.7 601 161.3 601 138.2 601C115 601 92 601 69 601C46 601 23 601 11.5 601L0 601Z" fill="#b0c7de"></path><path d="M0 390L11.5 383.8C23 377.7 46 365.3 69 377.8C92 390.3 115 427.7 138.2 436.5C161.3 445.3 184.7 425.7 207.8 414.7C231 403.7 254 401.3 277 411.8C300 422.3 323 445.7 346 461C369 476.3 392 483.7 415.2 478.3C438.3 473 461.7 455 484.8 432.5C508 410 531 383 554 377.5C577 372 600 388 623 399C646 410 669 416 692.2 406.2C715.3 396.3 738.7 370.7 761.8 359.7C785 348.7 808 352.3 831 352.7C854 353 877 350 888.5 348.5L900 347L900 601L888.5 601C877 601 854 601 831 601C808 601 785 601 761.8 601C738.7 601 715.3 601 692.2 601C669 601 646 601 623 601C600 601 577 601 554 601C531 601 508 601 484.8 601C461.7 601 438.3 601 415.2 601C392 601 369 601 346 601C323 601 300 601 277 601C254 601 231 601 207.8 601C184.7 601 161.3 601 138.2 601C115 601 92 601 69 601C46 601 23 601 11.5 601L0 601Z" fill="#cdd3d8"></path><path d="M0 397L11.5 411.5C23 426 46 455 69 473.7C92 492.3 115 500.7 138.2 489.7C161.3 478.7 184.7 448.3 207.8 438.2C231 428 254 438 277 437.3C300 436.7 323 425.3 346 437.3C369 449.3 392 484.7 415.2 483.5C438.3 482.3 461.7 444.7 484.8 429C508 413.3 531 419.7 554 426.3C577 433 600 440 623 450.7C646 461.3 669 475.7 692.2 481.5C715.3 487.3 738.7 484.7 761.8 484.5C785 484.3 808 486.7 831 488C854 489.3 877 489.7 888.5 489.8L900 490L900 601L888.5 601C877 601 854 601 831 601C808 601 785 601 761.8 601C738.7 601 715.3 601 692.2 601C669 601 646 601 623 601C600 601 577 601 554 601C531 601 508 601 484.8 601C461.7 601 438.3 601 415.2 601C392 601 369 601 346 601C323 601 300 601 277 601C254 601 231 601 207.8 601C184.7 601 161.3 601 138.2 601C115 601 92 601 69 601C46 601 23 601 11.5 601L0 601Z" fill="#b0c7de"></path><path d="M0 545L11.5 532.7C23 520.3 46 495.7 69 492.3C92 489 115 507 138.2 506C161.3 505 184.7 485 207.8 489.8C231 494.7 254 524.3 277 532C300 539.7 323 525.3 346 517.8C369 510.3 392 509.7 415.2 517C438.3 524.3 461.7 539.7 484.8 533C508 526.3 531 497.7 554 480.2C577 462.7 600 456.3 623 453.5C646 450.7 669 451.3 692.2 466.3C715.3 481.3 738.7 510.7 761.8 511.5C785 512.3 808 484.7 831 483.8C854 483 877 509 888.5 522L900 535L900 601L888.5 601C877 601 854 601 831 601C808 601 785 601 761.8 601C738.7 601 715.3 601 692.2 601C669 601 646 601 623 601C600 601 577 601 554 601C531 601 508 601 484.8 601C461.7 601 438.3 601 415.2 601C392 601 369 601 346 601C323 601 300 601 277 601C254 601 231 601 207.8 601C184.7 601 161.3 601 138.2 601C115 601 92 601 69 601C46 601 23 601 11.5 601L0 601Z" fill="#77a3ec"></path><path d="M0 503L11.5 511.5C23 520 46 537 69 541.5C92 546 115 538 138.2 544.5C161.3 551 184.7 572 207.8 578.3C231 584.7 254 576.3 277 566.2C300 556 323 544 346 535.7C369 527.3 392 522.7 415.2 532.3C438.3 542 461.7 566 484.8 575.3C508 584.7 531 579.3 554 572.3C577 565.3 600 556.7 623 557C646 557.3 669 566.7 692.2 572C715.3 577.3 738.7 578.7 761.8 570.8C785 563 808 546 831 538.2C854 530.3 877 531.7 888.5 532.3L900 533L900 601L888.5 601C877 601 854 601 831 601C808 601 785 601 761.8 601C738.7 601 715.3 601 692.2 601C669 601 646 601 623 601C600 601 577 601 554 601C531 601 508 601 484.8 601C461.7 601 438.3 601 415.2 601C392 601 369 601 346 601C323 601 300 601 277 601C254 601 231 601 207.8 601C184.7 601 161.3 601 138.2 601C115 601 92 601 69 601C46 601 23 601 11.5 601L0 601Z" fill="#6777ef"></path></svg>