<svg id="visual" viewBox="0 0 900 600" width="900" height="600" xmlns="http://www.w3.org/2000/svg" xmlns:xlink="http://www.w3.org/1999/xlink" version="1.1"><rect x="0" y="0" width="900" height="600" fill="#EEEEEE"></rect><path d="M0 261L21.5 259.7C43 258.3 86 255.7 128.8 241C171.7 226.3 214.3 199.7 257.2 194.8C300 190 343 207 385.8 239.7C428.7 272.3 471.3 320.7 514.2 318C557 315.3 600 261.7 642.8 272.2C685.7 282.7 728.3 357.3 771.2 371.3C814 385.3 857 338.7 878.5 315.3L900 292L900 601L878.5 601C857 601 814 601 771.2 601C728.3 601 685.7 601 642.8 601C600 601 557 601 514.2 601C471.3 601 428.7 601 385.8 601C343 601 300 601 257.2 601C214.3 601 171.7 601 128.8 601C86 601 43 601 21.5 601L0 601Z" fill="#6777ef" stroke-linecap="round" stroke-linejoin="miter"></path></svg>