<svg id="visual" viewBox="0 0 960 540" width="960" height="540" xmlns="http://www.w3.org/2000/svg" xmlns:xlink="http://www.w3.org/1999/xlink" version="1.1"><rect x="0" y="0" width="960" height="540" fill="#e3eaef"></rect><path d="M0 508L32 500.3C64 492.7 128 477.3 192 480.5C256 483.7 320 505.3 384 446.5C448 387.7 512 248.3 576 228C640 207.7 704 306.3 768 363.2C832 420 896 435 928 442.5L960 450L960 541L928 541C896 541 832 541 768 541C704 541 640 541 576 541C512 541 448 541 384 541C320 541 256 541 192 541C128 541 64 541 32 541L0 541Z" fill="#e3eaef"></path><path d="M0 176L32 171.3C64 166.7 128 157.3 192 175.3C256 193.3 320 238.7 384 287.5C448 336.3 512 388.7 576 422.2C640 455.7 704 470.3 768 456C832 441.7 896 398.3 928 376.7L960 355L960 541L928 541C896 541 832 541 768 541C704 541 640 541 576 541C512 541 448 541 384 541C320 541 256 541 192 541C128 541 64 541 32 541L0 541Z" fill="#a2c9f4"></path><path d="M0 367L32 369C64 371 128 375 192 351.7C256 328.3 320 277.7 384 252.8C448 228 512 229 576 262.5C640 296 704 362 768 389.7C832 417.3 896 406.7 928 401.3L960 396L960 541L928 541C896 541 832 541 768 541C704 541 640 541 576 541C512 541 448 541 384 541C320 541 256 541 192 541C128 541 64 541 32 541L0 541Z" fill="#73a3f7"></path><path d="M0 352L32 373.2C64 394.3 128 436.7 192 444.2C256 451.7 320 424.3 384 426.7C448 429 512 461 576 483.7C640 506.3 704 519.7 768 527C832 534.3 896 535.7 928 536.3L960 537L960 541L928 541C896 541 832 541 768 541C704 541 640 541 576 541C512 541 448 541 384 541C320 541 256 541 192 541C128 541 64 541 32 541L0 541Z" fill="#6777ef"></path></svg>