<svg id="visual" viewBox="0 0 960 540" width="960" height="540" xmlns="http://www.w3.org/2000/svg" xmlns:xlink="http://www.w3.org/1999/xlink" version="1.1"><rect x="0" y="0" width="960" height="540" fill="#e3eaef"></rect><path d="M0 468L32 399.7C64 331.3 128 194.7 192 166.2C256 137.7 320 217.3 384 235.3C448 253.3 512 209.7 576 179.3C640 149 704 132 768 175.5C832 219 896 323 928 375L960 427L960 541L928 541C896 541 832 541 768 541C704 541 640 541 576 541C512 541 448 541 384 541C320 541 256 541 192 541C128 541 64 541 32 541L0 541Z" fill="#e3eaef"></path><path d="M0 174L32 189.7C64 205.3 128 236.7 192 235.2C256 233.7 320 199.3 384 179.3C448 159.3 512 153.7 576 199.5C640 245.3 704 342.7 768 354.3C832 366 896 292 928 255L960 218L960 541L928 541C896 541 832 541 768 541C704 541 640 541 576 541C512 541 448 541 384 541C320 541 256 541 192 541C128 541 64 541 32 541L0 541Z" fill="#a2c9f4"></path><path d="M0 440L32 441C64 442 128 444 192 411.3C256 378.7 320 311.3 384 294.2C448 277 512 310 576 350.5C640 391 704 439 768 420.7C832 402.3 896 317.7 928 275.3L960 233L960 541L928 541C896 541 832 541 768 541C704 541 640 541 576 541C512 541 448 541 384 541C320 541 256 541 192 541C128 541 64 541 32 541L0 541Z" fill="#73a3f7"></path><path d="M0 434L32 440.2C64 446.3 128 458.7 192 455.7C256 452.7 320 434.3 384 444.7C448 455 512 494 576 509.7C640 525.3 704 517.7 768 488.7C832 459.7 896 409.3 928 384.2L960 359L960 541L928 541C896 541 832 541 768 541C704 541 640 541 576 541C512 541 448 541 384 541C320 541 256 541 192 541C128 541 64 541 32 541L0 541Z" fill="#6777ef"></path></svg>